<svg id="visual" viewBox="0 0 200 200" width="200" height="200" xmlns="http://www.w3.org/2000/svg" xmlns:xlink="http://www.w3.org/1999/xlink" version="1.1"><g><g transform="translate(104 15)"><path d="M11.5 -14.2C15.1 -7.9 18.4 -3.9 18.8 0.5C19.3 4.8 16.9 9.7 13.3 13.6C9.7 17.4 4.8 20.4 -2.1 22.5C-9.1 24.6 -18.1 25.9 -21.3 22C-24.5 18.1 -21.8 9.1 -19.4 2.4C-17 -4.3 -14.9 -8.6 -11.8 -14.9C-8.6 -21.2 -4.3 -29.5 -0.2 -29.3C3.9 -29.2 7.9 -20.5 11.5 -14.2Z" fill="#ffffff"></path></g><g transform="translate(138 144)"><path d="M10.2 -10.7C12.7 -7.7 13.9 -3.8 14 0.1C14 4 13 7.9 10.4 10.5C7.9 13.1 4 14.2 0.8 13.4C-2.3 12.6 -4.6 9.8 -8.1 7.2C-11.6 4.6 -16.3 2.3 -16.9 -0.6C-17.5 -3.5 -14 -7 -10.5 -10C-7 -13.1 -3.5 -15.8 0.2 -15.9C3.8 -16.1 7.7 -13.8 10.2 -10.7Z" fill="#ffffff"></path></g><g transform="translate(26 92)"><path d="M7.5 -6.8C9.7 -5.2 11.6 -2.6 12.4 0.8C13.1 4.1 12.8 8.3 10.5 11.2C8.3 14 4.1 15.6 0.6 14.9C-2.9 14.3 -5.7 11.4 -8.1 8.6C-10.5 5.7 -12.3 2.9 -13.3 -1C-14.3 -4.8 -14.3 -9.6 -11.9 -11.1C-9.6 -12.7 -4.8 -11.1 -1.1 -10C2.6 -8.9 5.2 -8.4 7.5 -6.8Z" fill="#ffffff"></path></g></g></svg>