<svg id="visual" viewBox="0 0 900 600" width="900" height="600" xmlns="http://www.w3.org/2000/svg" xmlns:xlink="http://www.w3.org/1999/xlink" version="1.1"><rect x="0" y="0" width="900" height="600" fill="#f8ded3"></rect><defs><linearGradient id="grad1_0" x1="33.3%" y1="100%" x2="100%" y2="0%"><stop offset="20%" stop-color="#f0c7b6" stop-opacity="1"></stop><stop offset="80%" stop-color="#f0c7b6" stop-opacity="1"></stop></linearGradient></defs><defs><linearGradient id="grad1_1" x1="33.3%" y1="100%" x2="100%" y2="0%"><stop offset="20%" stop-color="#f0c7b6" stop-opacity="1"></stop><stop offset="80%" stop-color="#f4d2c4" stop-opacity="1"></stop></linearGradient></defs><defs><linearGradient id="grad1_2" x1="33.3%" y1="100%" x2="100%" y2="0%"><stop offset="20%" stop-color="#f8ded3" stop-opacity="1"></stop><stop offset="80%" stop-color="#f4d2c4" stop-opacity="1"></stop></linearGradient></defs><defs><linearGradient id="grad2_0" x1="0%" y1="100%" x2="66.7%" y2="0%"><stop offset="20%" stop-color="#f0c7b6" stop-opacity="1"></stop><stop offset="80%" stop-color="#f0c7b6" stop-opacity="1"></stop></linearGradient></defs><defs><linearGradient id="grad2_1" x1="0%" y1="100%" x2="66.7%" y2="0%"><stop offset="20%" stop-color="#f4d2c4" stop-opacity="1"></stop><stop offset="80%" stop-color="#f0c7b6" stop-opacity="1"></stop></linearGradient></defs><defs><linearGradient id="grad2_2" x1="0%" y1="100%" x2="66.7%" y2="0%"><stop offset="20%" stop-color="#f4d2c4" stop-opacity="1"></stop><stop offset="80%" stop-color="#f8ded3" stop-opacity="1"></stop></linearGradient></defs><g transform="translate(900, 600)"><path d="M-378 0C-376 -33.6 -374.1 -67.2 -365.1 -97.8C-356.2 -128.5 -340.2 -156.1 -328.2 -189.5C-316.3 -222.9 -308.3 -261.9 -286.4 -286.4C-264.5 -310.8 -228.6 -320.7 -198.5 -343.8C-168.4 -366.9 -144.1 -403.3 -112 -417.9C-79.9 -432.5 -39.9 -425.3 0 -418L0 0Z" fill="#f6d8cc"></path><path d="M-252 0C-250.7 -22.4 -249.4 -44.8 -243.4 -65.2C-237.4 -85.6 -226.8 -104.1 -218.8 -126.3C-210.8 -148.6 -205.5 -174.6 -190.9 -190.9C-176.3 -207.2 -152.4 -213.8 -132.3 -229.2C-112.3 -244.6 -96.1 -268.9 -74.7 -278.6C-53.2 -288.3 -26.6 -283.5 0 -278.7L0 0Z" fill="#f2cdbd"></path><path d="M-126 0C-125.3 -11.2 -124.7 -22.4 -121.7 -32.6C-118.7 -42.8 -113.4 -52 -109.4 -63.2C-105.4 -74.3 -102.8 -87.3 -95.5 -95.5C-88.2 -103.6 -76.2 -106.9 -66.2 -114.6C-56.1 -122.3 -48 -134.4 -37.3 -139.3C-26.6 -144.2 -13.3 -141.8 0 -139.3L0 0Z" fill="#f0c7b6"></path></g><g transform="translate(0, 0)"><path d="M416 0C421.9 38.8 427.8 77.6 417.9 112C408 146.4 382.4 176.4 362 209C341.6 241.6 326.6 276.7 299.8 299.8C273.1 322.9 234.7 333.9 200 346.4C165.3 359 134.4 373.1 101.7 379.6C69 386.1 34.5 385.1 0 384L0 0Z" fill="#f6d8cc"></path><path d="M277.3 0C281.3 25.9 285.2 51.7 278.6 74.7C272 97.6 254.9 117.6 241.3 139.3C227.8 161.1 217.7 184.5 199.9 199.9C182 215.3 156.4 222.6 133.3 230.9C110.2 239.3 89.6 248.7 67.8 253.1C46 257.4 23 256.7 0 256L0 0Z" fill="#f2cdbd"></path><path d="M138.7 0C140.6 12.9 142.6 25.9 139.3 37.3C136 48.8 127.5 58.8 120.7 69.7C113.9 80.5 108.9 92.2 99.9 99.9C91 107.6 78.2 111.3 66.7 115.5C55.1 119.7 44.8 124.4 33.9 126.5C23 128.7 11.5 128.4 0 128L0 0Z" fill="#f0c7b6"></path></g></svg>