<svg id="visual" viewBox="0 0 900 600" width="900" height="600" xmlns="http://www.w3.org/2000/svg" xmlns:xlink="http://www.w3.org/1999/xlink" version="1.1"><path d="M341 600L387.5 580C434 560 527 520 537.5 480C548 440 476 400 428 360C380 320 356 280 383 240C410 200 488 160 543.5 120C599 80 632 40 648.5 20L665 0L900 0L900 20C900 40 900 80 900 120C900 160 900 200 900 240C900 280 900 320 900 360C900 400 900 440 900 480C900 520 900 560 900 580L900 600Z" fill="#004cbb"></path><path d="M170 600L200 580C230 560 290 520 311 480C332 440 314 400 294.5 360C275 320 254 280 240.5 240C227 200 221 160 276.5 120C332 80 449 40 507.5 20L566 0L666 0L649.5 20C633 40 600 80 544.5 120C489 160 411 200 384 240C357 280 381 320 429 360C477 400 549 440 538.5 480C528 520 435 560 388.5 580L342 600Z" fill="#0066ff"></path><path d="M0 600L0 580C0 560 0 520 0 480C0 440 0 400 0 360C0 320 0 280 0 240C0 200 0 160 0 120C0 80 0 40 0 20L0 0L567 0L508.5 20C450 40 333 80 277.5 120C222 160 228 200 241.5 240C255 280 276 320 295.5 360C315 400 333 440 312 480C291 520 231 560 201 580L171 600Z" fill="#6198ff"></path></svg>