<svg id="visual" viewBox="0 0 900 600" width="900" height="600" xmlns="http://www.w3.org/2000/svg" xmlns:xlink="http://www.w3.org/1999/xlink" version="1.1"><path d="M0 91L39 91L39 19L78 19L78 67L117 67L117 97L157 97L157 67L196 67L196 31L235 31L235 55L274 55L274 85L313 85L313 61L352 61L352 61L391 61L391 49L430 49L430 79L470 79L470 109L509 109L509 109L548 109L548 127L587 127L587 25L626 25L626 49L665 49L665 19L704 19L704 61L743 61L743 49L783 49L783 67L822 67L822 25L861 25L861 67L900 67L900 37L900 0L900 0L861 0L861 0L822 0L822 0L783 0L783 0L743 0L743 0L704 0L704 0L665 0L665 0L626 0L626 0L587 0L587 0L548 0L548 0L509 0L509 0L470 0L470 0L430 0L430 0L391 0L391 0L352 0L352 0L313 0L313 0L274 0L274 0L235 0L235 0L196 0L196 0L157 0L157 0L117 0L117 0L78 0L78 0L39 0L39 0L0 0Z" fill="#fa7268"></path><path d="M0 103L39 103L39 31L78 31L78 121L117 121L117 139L157 139L157 109L196 109L196 49L235 49L235 127L274 127L274 139L313 139L313 127L352 127L352 103L391 103L391 109L430 109L430 109L470 109L470 175L509 175L509 127L548 127L548 139L587 139L587 73L626 73L626 67L665 67L665 43L704 43L704 121L743 121L743 73L783 73L783 121L822 121L822 49L861 49L861 79L900 79L900 67L900 35L900 65L861 65L861 23L822 23L822 65L783 65L783 47L743 47L743 59L704 59L704 17L665 17L665 47L626 47L626 23L587 23L587 125L548 125L548 107L509 107L509 107L470 107L470 77L430 77L430 47L391 47L391 59L352 59L352 59L313 59L313 83L274 83L274 53L235 53L235 29L196 29L196 65L157 65L157 95L117 95L117 65L78 65L78 17L39 17L39 89L0 89Z" fill="#f46b67"></path><path d="M0 151L39 151L39 151L78 151L78 241L117 241L117 193L157 193L157 229L196 229L196 151L235 151L235 307L274 307L274 211L313 211L313 229L352 229L352 163L391 163L391 283L430 283L430 307L470 307L470 199L509 199L509 265L548 265L548 301L587 301L587 205L626 205L626 163L665 163L665 133L704 133L704 301L743 301L743 253L783 253L783 337L822 337L822 127L861 127L861 217L900 217L900 271L900 65L900 77L861 77L861 47L822 47L822 119L783 119L783 71L743 71L743 119L704 119L704 41L665 41L665 65L626 65L626 71L587 71L587 137L548 137L548 125L509 125L509 173L470 173L470 107L430 107L430 107L391 107L391 101L352 101L352 125L313 125L313 137L274 137L274 125L235 125L235 47L196 47L196 107L157 107L157 137L117 137L117 119L78 119L78 29L39 29L39 101L0 101Z" fill="#ee6366"></path><path d="M0 199L39 199L39 187L78 187L78 271L117 271L117 223L157 223L157 265L196 265L196 181L235 181L235 331L274 331L274 217L313 217L313 265L352 265L352 175L391 175L391 295L430 295L430 325L470 325L470 235L509 235L509 277L548 277L548 325L587 325L587 241L626 241L626 169L665 169L665 145L704 145L704 325L743 325L743 289L783 289L783 355L822 355L822 145L861 145L861 235L900 235L900 301L900 269L900 215L861 215L861 125L822 125L822 335L783 335L783 251L743 251L743 299L704 299L704 131L665 131L665 161L626 161L626 203L587 203L587 299L548 299L548 263L509 263L509 197L470 197L470 305L430 305L430 281L391 281L391 161L352 161L352 227L313 227L313 209L274 209L274 305L235 305L235 149L196 149L196 227L157 227L157 191L117 191L117 239L78 239L78 149L39 149L39 149L0 149Z" fill="#e85c66"></path><path d="M0 217L39 217L39 217L78 217L78 319L117 319L117 313L157 313L157 283L196 283L196 235L235 235L235 349L274 349L274 289L313 289L313 295L352 295L352 265L391 265L391 367L430 367L430 385L470 385L470 289L509 289L509 301L548 301L548 367L587 367L587 301L626 301L626 271L665 271L665 199L704 199L704 361L743 361L743 337L783 337L783 379L822 379L822 241L861 241L861 337L900 337L900 313L900 299L900 233L861 233L861 143L822 143L822 353L783 353L783 287L743 287L743 323L704 323L704 143L665 143L665 167L626 167L626 239L587 239L587 323L548 323L548 275L509 275L509 233L470 233L470 323L430 323L430 293L391 293L391 173L352 173L352 263L313 263L313 215L274 215L274 329L235 329L235 179L196 179L196 263L157 263L157 221L117 221L117 269L78 269L78 185L39 185L39 197L0 197Z" fill="#e25565"></path><path d="M0 295L39 295L39 259L78 259L78 373L117 373L117 331L157 331L157 295L196 295L196 265L235 265L235 373L274 373L274 337L313 337L313 337L352 337L352 277L391 277L391 439L430 439L430 439L470 439L470 301L509 301L509 379L548 379L548 439L587 439L587 325L626 325L626 283L665 283L665 277L704 277L704 379L743 379L743 385L783 385L783 391L822 391L822 271L861 271L861 379L900 379L900 343L900 311L900 335L861 335L861 239L822 239L822 377L783 377L783 335L743 335L743 359L704 359L704 197L665 197L665 269L626 269L626 299L587 299L587 365L548 365L548 299L509 299L509 287L470 287L470 383L430 383L430 365L391 365L391 263L352 263L352 293L313 293L313 287L274 287L274 347L235 347L235 233L196 233L196 281L157 281L157 311L117 311L117 317L78 317L78 215L39 215L39 215L0 215Z" fill="#db4e64"></path><path d="M0 325L39 325L39 307L78 307L78 385L117 385L117 343L157 343L157 325L196 325L196 277L235 277L235 379L274 379L274 355L313 355L313 343L352 343L352 325L391 325L391 451L430 451L430 451L470 451L470 307L509 307L509 427L548 427L548 445L587 445L587 367L626 367L626 325L665 325L665 325L704 325L704 385L743 385L743 409L783 409L783 397L822 397L822 295L861 295L861 397L900 397L900 373L900 341L900 377L861 377L861 269L822 269L822 389L783 389L783 383L743 383L743 377L704 377L704 275L665 275L665 281L626 281L626 323L587 323L587 437L548 437L548 377L509 377L509 299L470 299L470 437L430 437L430 437L391 437L391 275L352 275L352 335L313 335L313 335L274 335L274 371L235 371L235 263L196 263L196 293L157 293L157 329L117 329L117 371L78 371L78 257L39 257L39 293L0 293Z" fill="#d54664"></path><path d="M0 553L39 553L39 481L78 481L78 475L117 475L117 511L157 511L157 481L196 481L196 523L235 523L235 499L274 499L274 469L313 469L313 469L352 469L352 493L391 493L391 541L430 541L430 499L470 499L470 475L509 475L509 517L548 517L548 487L587 487L587 475L626 475L626 481L665 481L665 487L704 487L704 487L743 487L743 487L783 487L783 523L822 523L822 517L861 517L861 529L900 529L900 469L900 371L900 395L861 395L861 293L822 293L822 395L783 395L783 407L743 407L743 383L704 383L704 323L665 323L665 323L626 323L626 365L587 365L587 443L548 443L548 425L509 425L509 305L470 305L470 449L430 449L430 449L391 449L391 323L352 323L352 341L313 341L313 353L274 353L274 377L235 377L235 275L196 275L196 323L157 323L157 341L117 341L117 383L78 383L78 305L39 305L39 323L0 323Z" fill="#ce3f63"></path><path d="M0 571L39 571L39 523L78 523L78 481L117 481L117 517L157 517L157 517L196 517L196 535L235 535L235 523L274 523L274 475L313 475L313 493L352 493L352 529L391 529L391 565L430 565L430 529L470 529L470 511L509 511L509 547L548 547L548 505L587 505L587 487L626 487L626 511L665 511L665 493L704 493L704 505L743 505L743 523L783 523L783 559L822 559L822 523L861 523L861 535L900 535L900 511L900 467L900 527L861 527L861 515L822 515L822 521L783 521L783 485L743 485L743 485L704 485L704 485L665 485L665 479L626 479L626 473L587 473L587 485L548 485L548 515L509 515L509 473L470 473L470 497L430 497L430 539L391 539L391 491L352 491L352 467L313 467L313 467L274 467L274 497L235 497L235 521L196 521L196 479L157 479L157 509L117 509L117 473L78 473L78 479L39 479L39 551L0 551Z" fill="#c63862"></path><path d="M0 589L39 589L39 571L78 571L78 523L117 523L117 547L157 547L157 559L196 559L196 553L235 553L235 553L274 553L274 523L313 523L313 541L352 541L352 547L391 547L391 589L430 589L430 553L470 553L470 541L509 541L509 553L548 553L548 523L587 523L587 535L626 535L626 547L665 547L665 541L704 541L704 547L743 547L743 571L783 571L783 571L822 571L822 547L861 547L861 577L900 577L900 559L900 509L900 533L861 533L861 521L822 521L822 557L783 557L783 521L743 521L743 503L704 503L704 491L665 491L665 509L626 509L626 485L587 485L587 503L548 503L548 545L509 545L509 509L470 509L470 527L430 527L430 563L391 563L391 527L352 527L352 491L313 491L313 473L274 473L274 521L235 521L235 533L196 533L196 515L157 515L157 515L117 515L117 479L78 479L78 521L39 521L39 569L0 569Z" fill="#bf3161"></path><path d="M0 595L39 595L39 583L78 583L78 547L117 547L117 577L157 577L157 595L196 595L196 583L235 583L235 583L274 583L274 553L313 553L313 547L352 547L352 583L391 583L391 595L430 595L430 577L470 577L470 559L509 559L509 559L548 559L548 559L587 559L587 571L626 571L626 553L665 553L665 577L704 577L704 559L743 559L743 583L783 583L783 583L822 583L822 583L861 583L861 589L900 589L900 583L900 557L900 575L861 575L861 545L822 545L822 569L783 569L783 569L743 569L743 545L704 545L704 539L665 539L665 545L626 545L626 533L587 533L587 521L548 521L548 551L509 551L509 539L470 539L470 551L430 551L430 587L391 587L391 545L352 545L352 539L313 539L313 521L274 521L274 551L235 551L235 551L196 551L196 557L157 557L157 545L117 545L117 521L78 521L78 569L39 569L39 587L0 587Z" fill="#b82a60"></path><path d="M0 601L39 601L39 601L78 601L78 601L117 601L117 601L157 601L157 601L196 601L196 601L235 601L235 601L274 601L274 601L313 601L313 601L352 601L352 601L391 601L391 601L430 601L430 601L470 601L470 601L509 601L509 601L548 601L548 601L587 601L587 601L626 601L626 601L665 601L665 601L704 601L704 601L743 601L743 601L783 601L783 601L822 601L822 601L861 601L861 601L900 601L900 601L900 581L900 587L861 587L861 581L822 581L822 581L783 581L783 581L743 581L743 557L704 557L704 575L665 575L665 551L626 551L626 569L587 569L587 557L548 557L548 557L509 557L509 557L470 557L470 575L430 575L430 593L391 593L391 581L352 581L352 545L313 545L313 551L274 551L274 581L235 581L235 581L196 581L196 593L157 593L157 575L117 575L117 545L78 545L78 581L39 581L39 593L0 593Z" fill="#b0235f"></path></svg>