<svg xmlns="http://www.w3.org/2000/svg" xmlns:xlink="http://www.w3.org/1999/xlink" viewBox="0 0 614.24 386.81"><defs><style>.cls-1{fill:#c0e2e8;}.cls-18,.cls-2,.cls-23,.cls-35,.cls-42,.cls-44,.cls-45{fill:none;stroke-miterlimit:10;}.cls-2{stroke:#a0d0d9;}.cls-3{fill:#a0d0d9;}.cls-4{fill:url(#linear-gradient);}.cls-5{opacity:0.09;}.cls-6{fill:url(#linear-gradient-2);}.cls-7{fill:url(#linear-gradient-3);}.cls-16,.cls-20,.cls-21,.cls-8{fill:#f5f5f5;}.cls-9{fill:#405ad4;}.cls-10{fill:#152d94;}.cls-11{fill:#758fff;}.cls-12{fill:#1e3fd1;}.cls-13{fill:#244dff;}.cls-14{fill:#479d4f;}.cls-15,.cls-17{fill:#344dbf;}.cls-16{font-size:6.28px;font-family:OpenSans-Semibold, OpenSans Semibold;font-weight:600;letter-spacing:0.08em;}.cls-17{font-size:9.84px;}.cls-17,.cls-20,.cls-21{font-family:OpenSans-Bold, Open Sans;font-weight:700;}.cls-18{stroke:#adadad;stroke-width:0.35px;}.cls-19{fill:#e05150;}.cls-20{font-size:15.66px;}.cls-21{font-size:16.03px;}.cls-22{fill:url(#linear-gradient-4);}.cls-23{stroke:#f5f5f5;}.cls-23,.cls-42{stroke-width:0.5px;}.cls-24{fill:url(#linear-gradient-5);}.cls-25{fill:url(#linear-gradient-6);}.cls-26{fill:url(#linear-gradient-7);}.cls-27{fill:url(#linear-gradient-8);}.cls-28{fill:url(#linear-gradient-9);}.cls-29{fill:url(#linear-gradient-10);}.cls-30{fill:url(#linear-gradient-11);}.cls-31{opacity:0.15;}.cls-32{fill:#00a676;}.cls-33{fill:url(#linear-gradient-12);}.cls-34{fill:url(#linear-gradient-13);}.cls-35,.cls-44{stroke:#0e1d61;}.cls-35{stroke-width:0.32px;}.cls-36{fill:url(#linear-gradient-14);}.cls-37{fill:#e87a71;}.cls-38{fill:#e0c180;}.cls-39{fill:#0b184f;}.cls-40{fill:#12257a;}.cls-41{fill:#0e1d61;}.cls-42,.cls-45{stroke:#0b184f;}.cls-43{fill:#c2392d;}.cls-44{stroke-width:0.3px;}.cls-45{stroke-width:0.35px;}</style><linearGradient id="linear-gradient" x1="418.72" y1="248.44" x2="418.72" y2="290.65" gradientUnits="userSpaceOnUse"><stop offset="0" stop-color="#c0e2e8"/><stop offset="0.04" stop-color="#b9d9e5"/><stop offset="0.28" stop-color="#89a1d3"/><stop offset="0.51" stop-color="#6375c5"/><stop offset="0.71" stop-color="#4855bb"/><stop offset="0.88" stop-color="#3842b5"/><stop offset="1" stop-color="#323bb3"/></linearGradient><linearGradient id="linear-gradient-2" x1="353.73" y1="140.57" x2="409.9" y2="140.57" gradientUnits="userSpaceOnUse"><stop offset="0.07" stop-color="#f5f5f5"/><stop offset="0.16" stop-color="#eef0f0"/><stop offset="0.29" stop-color="#dae2e4"/><stop offset="0.45" stop-color="#b9cccf"/><stop offset="0.63" stop-color="#8cacb3"/><stop offset="0.83" stop-color="#52858e"/><stop offset="1" stop-color="#1a5e6b"/></linearGradient><linearGradient id="linear-gradient-3" x1="263.1" y1="231.8" x2="263.1" y2="134.46" gradientUnits="userSpaceOnUse"><stop offset="0" stop-color="#344dbf" stop-opacity="0"/><stop offset="1" stop-color="#344dbf"/></linearGradient><linearGradient id="linear-gradient-4" x1="487.26" y1="325.13" x2="487.26" y2="246.84" gradientUnits="userSpaceOnUse"><stop offset="0" stop-color="#1a5e6b"/><stop offset="0.96" stop-color="#20853e"/></linearGradient><linearGradient id="linear-gradient-5" x1="554.19" y1="318.08" x2="594.97" y2="245.8" xlink:href="#linear-gradient-4"/><linearGradient id="linear-gradient-6" x1="962.95" y1="325.13" x2="962.95" y2="246.84" gradientTransform="matrix(-1, 0, 0, 1, 1089.93, 0)" xlink:href="#linear-gradient-4"/><linearGradient id="linear-gradient-7" x1="1029.88" y1="318.08" x2="1070.66" y2="245.8" gradientTransform="matrix(-1, 0, 0, 1, 1089.93, 0)" xlink:href="#linear-gradient-4"/><linearGradient id="linear-gradient-8" x1="180.43" y1="339.23" x2="180.43" y2="322.58" xlink:href="#linear-gradient-3"/><linearGradient id="linear-gradient-9" x1="211.5" y1="339.23" x2="211.5" y2="322.58" xlink:href="#linear-gradient-3"/><linearGradient id="linear-gradient-10" x1="269.93" y1="339.23" x2="269.93" y2="322.58" xlink:href="#linear-gradient-3"/><linearGradient id="linear-gradient-11" x1="315.38" y1="339.23" x2="315.38" y2="322.58" xlink:href="#linear-gradient-3"/><linearGradient id="linear-gradient-12" x1="32.31" y1="182.48" x2="32.31" y2="123.23" gradientUnits="userSpaceOnUse"><stop offset="0" stop-color="#344dbf" stop-opacity="0"/><stop offset="0.97" stop-color="#344dbf"/></linearGradient><linearGradient id="linear-gradient-13" x1="571.07" y1="117.43" x2="571.07" y2="168.64" gradientUnits="userSpaceOnUse"><stop offset="0" stop-color="#42866f" stop-opacity="0"/><stop offset="1" stop-color="#479d4f"/></linearGradient><linearGradient id="linear-gradient-14" x1="169.13" y1="143.78" x2="171.38" y2="124.37" xlink:href="#linear-gradient-3"/></defs><g id="Layer_2" data-name="Layer 2"><g id="OBJECTS"><path class="cls-1" d="M88.54,17.16H533.8A26.87,26.87,0,0,1,560.67,44V330.91a0,0,0,0,1,0,0h-499a0,0,0,0,1,0,0V44A26.87,26.87,0,0,1,88.54,17.16Z"/><rect class="cls-2" x="179.04" y="8.47" width="218.1" height="78.48" rx="8"/><rect class="cls-3" x="32.31" y="78.64" width="137.09" height="120.69" rx="9.11"/><rect class="cls-3" x="433.54" y="10.74" width="81.23" height="139.43" rx="7.52"/><path class="cls-4" d="M454.76,257.36a35.19,35.19,0,0,0,0-9.17H446.2a27.15,27.15,0,0,0-1.38-5.19l7.42-4.28a36.46,36.46,0,0,0-4.6-7.94l-7.38,4.27a28,28,0,0,0-3.81-3.81l4.26-7.39a36.12,36.12,0,0,0-7.93-4.59l-4.28,7.42a28.35,28.35,0,0,0-5.19-1.39v-8.56a36.39,36.39,0,0,0-9.17,0v8.56a27.93,27.93,0,0,0-5.19,1.39l-4.29-7.42a36.58,36.58,0,0,0-7.93,4.59l4.27,7.39a27.44,27.44,0,0,0-3.81,3.81l-7.39-4.27a36,36,0,0,0-4.59,7.94l7.42,4.28a27.17,27.17,0,0,0-1.39,5.19h-8.56a36.39,36.39,0,0,0,0,9.17h8.56a27.57,27.57,0,0,0,1.39,5.19l-7.42,4.28a35.72,35.72,0,0,0,4.59,7.93l7.39-4.26a28,28,0,0,0,3.81,3.81l-4.27,7.38a36.62,36.62,0,0,0,7.93,4.6l4.29-7.42a27.93,27.93,0,0,0,5.19,1.39v8.55a35.19,35.19,0,0,0,9.17,0v-8.55a28.35,28.35,0,0,0,5.19-1.39l4.28,7.42a36.15,36.15,0,0,0,7.93-4.6l-4.26-7.38a28.58,28.58,0,0,0,3.81-3.81l7.38,4.26a36.15,36.15,0,0,0,4.6-7.93l-7.42-4.28a27.55,27.55,0,0,0,1.38-5.19Zm-36,8a12.56,12.56,0,1,1,12.56-12.56A12.56,12.56,0,0,1,418.72,265.33Z"/><rect class="cls-5" x="144.2" y="40.91" width="333.94" height="205.97" rx="8"/><rect class="cls-6" x="141.75" y="37.58" width="333.94" height="205.97" rx="8"/><path class="cls-7" d="M384.45,103.11s-37.81,14.94-56.66,44.79c-13.56,21.49-24.37,31.52-42.75,31.25s-31.5.11-41.25,8.73-15.37,32.65-35.25,27.58c-18.57-4.75-48.54-18.15-66.79-10.4v30.49a8,8,0,0,0,8,8h234.7Z"/><path class="cls-8" d="M467.69,37.58H370.94v206h96.75a8,8,0,0,0,8-8v-190A8,8,0,0,0,467.69,37.58Z"/><path class="cls-9" d="M187.87,213v10.55a24.54,24.54,0,0,1-20.11-38.6l8.63,6a14,14,0,0,0,11.48,22Z"/><path class="cls-10" d="M212.32,197a19.57,19.57,0,0,1,.1,2,24.55,24.55,0,0,1-24.55,24.55V213a14,14,0,0,0,14-14,11.27,11.27,0,0,0-.06-1.16Z"/><path class="cls-11" d="M212.32,197l-10.51.87a13.81,13.81,0,0,0-3.42-8.07l7.92-7A24.4,24.4,0,0,1,212.32,197Z"/><path class="cls-12" d="M187.87,174.45V185a14,14,0,0,0-11.48,6l-8.63-6A24.44,24.44,0,0,1,187.87,174.45Z"/><path class="cls-13" d="M206.31,182.79l-7.92,7A14,14,0,0,0,187.87,185V174.45A24.5,24.5,0,0,1,206.31,182.79Z"/><path class="cls-12" d="M256.06,174.45V185a14,14,0,0,0-14,14,13.65,13.65,0,0,0,.22,2.49l-10.36,1.86a23.08,23.08,0,0,1-.4-4.35A24.55,24.55,0,0,1,256.06,174.45Z"/><path class="cls-9" d="M245,207.58,236.67,214a24,24,0,0,1-4.76-10.69l10.36-1.86A14,14,0,0,0,245,207.58Z"/><path class="cls-10" d="M267.93,206.39l8.95,5.58A24.52,24.52,0,0,1,236.67,214l8.32-6.45a14,14,0,0,0,22.94-1.19Z"/><path class="cls-11" d="M269.94,200.82l10.43,1.39a24.12,24.12,0,0,1-3.49,9.76l-8.95-5.58A13.56,13.56,0,0,0,269.94,200.82Z"/><path class="cls-13" d="M280.59,199a22.92,22.92,0,0,1-.22,3.22l-10.43-1.39a13.83,13.83,0,0,0,.12-1.83,14,14,0,0,0-14-14V174.45A24.54,24.54,0,0,1,280.59,199Z"/><path class="cls-9" d="M324.23,213v10.55A24.55,24.55,0,0,1,299.69,199a24.18,24.18,0,0,1,2.76-11.27l9.35,4.84a13.8,13.8,0,0,0-1.57,6.43A14,14,0,0,0,324.23,213Z"/><path class="cls-10" d="M338,201.6l10.35,1.94a24.55,24.55,0,0,1-24.12,20V213A14,14,0,0,0,338,201.6Z"/><path class="cls-11" d="M348.78,199a24.37,24.37,0,0,1-.43,4.55L338,201.6a14,14,0,0,0-6.33-14.46l5.61-8.93A24.5,24.5,0,0,1,348.78,199Z"/><path class="cls-13" d="M324.23,174.45a24.34,24.34,0,0,1,13,3.76l-5.61,8.93a13.89,13.89,0,0,0-7.44-2.15Z"/><path class="cls-12" d="M324.23,174.45V185a14,14,0,0,0-12.43,7.57l-9.35-4.84A24.48,24.48,0,0,1,324.23,174.45Z"/><rect class="cls-14" x="408.49" y="82.34" width="42.05" height="10.57"/><rect class="cls-15" x="439.96" y="82.34" width="10.57" height="10.57"/><text class="cls-16" transform="translate(412 89.85)">+0.234</text><polygon class="cls-14" points="405.07 77.95 401.1 72.37 397.13 77.95 399.34 77.95 399.34 92.92 402.87 92.92 402.87 77.95 405.07 77.95"/><text class="cls-17" transform="translate(407.75 79.86)">LOREM</text><line class="cls-18" x1="396.1" y1="96.76" x2="450.54" y2="96.76"/><rect class="cls-19" x="408.49" y="110.58" width="42.05" height="10.57"/><rect class="cls-15" x="439.96" y="110.58" width="10.57" height="10.57"/><text class="cls-16" transform="translate(412 118.09)">-0.234</text><polygon class="cls-19" points="397.13 115.57 401.1 121.15 405.07 115.57 402.87 115.57 402.87 100.61 399.34 100.61 399.34 115.57 397.13 115.57"/><text class="cls-17" transform="translate(407.75 108.1)">IPSUM</text><line class="cls-18" x1="396.1" y1="125" x2="450.54" y2="125"/><rect class="cls-19" x="408.49" y="138.82" width="42.05" height="10.57"/><rect class="cls-15" x="439.96" y="138.82" width="10.57" height="10.57"/><text class="cls-16" transform="translate(412 146.32)">-1.234</text><polygon class="cls-19" points="397.13 143.8 401.1 149.39 405.07 143.8 402.87 143.8 402.87 128.84 399.34 128.84 399.34 143.8 397.13 143.8"/><text class="cls-17" transform="translate(407.75 136.33)">DOLOR</text><line class="cls-18" x1="396.1" y1="153.23" x2="450.54" y2="153.23"/><rect class="cls-14" x="408.49" y="167.05" width="42.05" height="10.57"/><rect class="cls-15" x="439.96" y="167.05" width="10.57" height="10.57"/><text class="cls-16" transform="translate(412 174.56)">+0.234</text><polygon class="cls-14" points="405.07 162.66 401.1 157.08 397.13 162.66 399.34 162.66 399.34 177.63 402.87 177.63 402.87 162.66 405.07 162.66"/><text class="cls-17" transform="translate(407.75 164.57)">AMET</text><line class="cls-18" x1="396.1" y1="181.47" x2="450.54" y2="181.47"/><rect class="cls-14" x="408.49" y="195.29" width="42.05" height="10.57"/><rect class="cls-15" x="439.96" y="195.29" width="10.57" height="10.57"/><text class="cls-16" transform="translate(412 202.79)">+0.234</text><polygon class="cls-14" points="405.07 190.9 401.1 185.31 397.13 190.9 399.34 190.9 399.34 205.86 402.87 205.86 402.87 190.9 405.07 190.9"/><text class="cls-17" transform="translate(407.75 192.81)">VENIAM</text><line class="cls-18" x1="396.1" y1="209.71" x2="450.54" y2="209.71"/><circle class="cls-15" cx="44.8" cy="77.97" r="25.03"/><polygon class="cls-15" points="66.25 83.88 79.45 95.4 62.1 91.89 66.25 83.88"/><text class="cls-20" transform="translate(28.29 83.89)">BUY</text><circle class="cls-14" cx="555.77" cy="78.89" r="27.97"/><polygon class="cls-14" points="531.81 85.5 512.56 98.17 536.44 94.45 531.81 85.5"/><text class="cls-21" transform="translate(537.81 83.41)">SELL</text><path class="cls-22" d="M510.92,210.76c0,4.9-6.25,10.75-14.37,14.66s-14.13,12.06-13.66,26.68-2.43,20.79-11.1,25.58-12.41,15.76-10,24.2-8.82,19.81-6,29h61.87s3.38-11.59,0-22.56-7.31-11.53-7.87-22.78,7.33-16.31,6.47-24.75-3.94-7.31-3.94-15.19,2-6,3.94-11.58S515.14,216.66,510.92,210.76Z"/><path class="cls-23" d="M511.2,216.05c.29,9.61-10.68,20-13.21,30.84s3.06,20.19-1.14,29.86-10.68,16.41-11,26,2,21.49,0,28.18"/><path class="cls-24" d="M530.43,330.91s-4.12-8.78-1.87-25.47,16.87-16.12,22.68-18,9-5.81,9-13.31,3.75-10.87,11.63-11.25,15.37.56,18-5.62,14.44-12.38,24.37-9.75c-7.5,3.75-5.62,13.12-5.43,17.43s-.19,9.94-9.19,11.63-7.88,9.36-5.25,13.68,6.37,12.38-3.75,15-16.5,14.37-9,25.65Z"/><path class="cls-23" d="M609.92,247.83c-9.54,1.94-10.6,11.48-16.61,17.85s-13.08,5.83-16.79,15-.61,15.57-5.45,20.15-22.65,17.88-21.24,30.06"/><path class="cls-14" d="M582,207s7.5,7.12,6.57,16.12-8.18,15.24-9.75,22.5c-1.5,6.94,1.5,13.31,2.43,17.44s1.13,9.94-10.5,14.06-12.56,12.56-7.31,18,5.63,12-6.56,18.94-11.29,16.84-11.29,16.84H492.37s-2.25-1.47,3.56-9.72,9-11.81,9-19.31-1.87-12.56,3-19.31,16.06-6.76,20.25-11.25,1.06-18.2,1.88-24.56,6.56-6.94,15-8.44,11.06-3.75,11.81-10.13,4.69-12,11.06-13.78S583.12,212.26,582,207Z"/><path class="cls-23" d="M582.84,210.76c1.12,5.06-5.35,8.72-11.53,14.34s-11.25,15.19-12.94,22.5-8.16,14-12.94,21.36-10.52,18.84-12.37,29.27c-3.38,19-18.28,32.68-18.28,32.68"/><path class="cls-25" d="M103.32,210.76c0,4.9,6.25,10.75,14.38,14.66s14.12,12.06,13.65,26.68,2.43,20.79,11.11,25.58,12.4,15.76,10,24.2,8.82,19.81,6,29H96.57s-3.37-11.59,0-22.56,7.31-11.53,7.88-22.78S97.12,269.26,98,260.82s3.94-7.31,3.94-15.19-2-6-3.94-11.58S99.1,216.66,103.32,210.76Z"/><path class="cls-23" d="M103,216.05c-.28,9.61,10.69,20,13.22,30.84s-3.06,20.19,1.14,29.86,10.67,16.41,10.95,26-2,21.49,0,28.18"/><path class="cls-26" d="M83.81,330.91s4.13-8.78,1.88-25.47-16.88-16.12-22.69-18-9-5.81-9-13.31-3.75-10.87-11.63-11.25-15.37.56-18-5.62S9.94,244.88,0,247.51c7.5,3.75,5.62,13.12,5.44,17.43s.18,9.94,9.18,11.63,7.88,9.36,5.25,13.68-6.37,12.38,3.75,15,16.5,14.37,9,25.65Z"/><path class="cls-23" d="M4.32,247.83c9.55,1.94,10.61,11.48,16.62,17.85s13.08,5.83,16.79,15,.6,15.57,5.45,20.15,22.65,17.88,21.23,30.06"/><path class="cls-14" d="M32.25,207s-7.5,7.12-6.56,16.12,8.18,15.24,9.75,22.5c1.5,6.94-1.5,13.31-2.44,17.44S31.87,273,43.5,277.13s12.56,12.56,7.31,18-5.62,12,6.56,18.94,11.29,16.84,11.29,16.84h53.21s2.25-1.47-3.56-9.72-9-11.81-9-19.31,1.88-12.56-3-19.31-16.06-6.76-20.25-11.25-1.06-18.2-1.87-24.56-6.57-6.94-15-8.44-11.07-3.75-11.82-10.13-4.68-12-11.06-13.78S31.12,212.26,32.25,207Z"/><path class="cls-23" d="M31.41,210.76c-1.13,5.06,5.34,8.72,11.53,14.34s11.25,15.19,12.93,22.5S64,261.63,68.81,269s10.53,18.84,12.38,29.27c3.37,19,18.28,32.68,18.28,32.68"/><ellipse class="cls-1" cx="110.67" cy="364.02" rx="73.87" ry="21.75"/><rect class="cls-5" x="177.25" y="258.63" width="196.12" height="85.94" rx="8.16"/><rect class="cls-8" x="174.82" y="256.45" width="196.12" height="85.94" rx="8.16"/><rect class="cls-19" x="325" y="267.73" width="27.19" height="6.32" rx="1.25"/><rect class="cls-14" x="292.17" y="267.73" width="27.19" height="6.32" rx="1.25"/><path class="cls-11" d="M183,342.38h179.8a8.16,8.16,0,0,0,8.16-8.16v-64.4l-45.94,47L305.76,301.6l-22.69,16L256.78,283l-38.39,34.31-13.78-13.22L186,325.79l-11.22-13.6v22A8.16,8.16,0,0,0,183,342.38Z"/><path class="cls-27" d="M174.82,334.22a8.16,8.16,0,0,0,8.16,8.16H186V325.79l-11.22-13.6Z"/><polygon class="cls-28" points="204.61 304.13 218.39 317.35 218.39 342.38 204.61 342.38 204.61 304.13"/><polygon class="cls-29" points="256.78 283.04 283.07 317.63 283.07 342.38 256.78 342.38 256.78 283.04"/><polygon class="cls-30" points="305.76 301.6 325 316.79 325 342.38 305.76 342.38 305.76 301.6"/><path class="cls-19" d="M187.69,325.64A1.65,1.65,0,1,1,186,324,1.65,1.65,0,0,1,187.69,325.64Z"/><path class="cls-19" d="M220,317.13a1.65,1.65,0,1,1-1.64-1.64A1.64,1.64,0,0,1,220,317.13Z"/><circle class="cls-19" cx="283.07" cy="317.63" r="1.65"/><path class="cls-19" d="M326.64,316.79a1.65,1.65,0,0,1-3.29,0,1.65,1.65,0,1,1,3.29,0Z"/><path class="cls-14" d="M307.41,301.6a1.65,1.65,0,1,1-1.65-1.65A1.65,1.65,0,0,1,307.41,301.6Z"/><circle class="cls-14" cx="256.78" cy="283.04" r="1.65"/><path class="cls-14" d="M206.25,304.13a1.65,1.65,0,1,1-1.64-1.64A1.64,1.64,0,0,1,206.25,304.13Z"/><rect class="cls-31" x="121.6" y="29.35" width="230.62" height="128.62" rx="8.82"/><rect class="cls-8" x="119.19" y="27.07" width="230.62" height="128.62" rx="8"/><line class="cls-32" x1="135.64" y1="45.16" x2="135.64" y2="155.69"/><rect class="cls-32" x="134.51" y="81.16" width="2.26" height="46.27"/><line class="cls-32" x1="140.46" y1="45.16" x2="140.46" y2="155.69"/><rect class="cls-32" x="139.33" y="71.88" width="2.26" height="23.62"/><line class="cls-32" x1="145.28" y1="45.16" x2="145.28" y2="155.69"/><rect class="cls-32" x="144.15" y="55.29" width="2.26" height="46.27"/><line class="cls-32" x1="150.1" y1="45.16" x2="150.1" y2="155.69"/><rect class="cls-32" x="148.97" y="69" width="2.26" height="46.27"/><line class="cls-32" x1="154.93" y1="45.16" x2="154.93" y2="155.69"/><rect class="cls-32" x="153.8" y="66.39" width="2.26" height="26.81"/><line class="cls-32" x1="159.75" y1="45.16" x2="159.75" y2="155.69"/><rect class="cls-32" x="158.62" y="73.57" width="2.26" height="24.48"/><line class="cls-32" x1="164.57" y1="45.16" x2="164.57" y2="155.69"/><rect class="cls-32" x="163.36" y="78.64" width="2.26" height="23.97"/><line class="cls-32" x1="169.39" y1="45.16" x2="169.39" y2="155.69"/><rect class="cls-32" x="168.26" y="95.8" width="2.26" height="31.62"/><line class="cls-32" x1="174.22" y1="45.16" x2="174.22" y2="155.69"/><line class="cls-32" x1="179.04" y1="45.16" x2="179.04" y2="155.69"/><rect class="cls-32" x="177.91" y="104.29" width="2.26" height="23.13"/><line class="cls-32" x1="183.86" y1="45.16" x2="183.86" y2="155.69"/><rect class="cls-32" x="182.73" y="81.16" width="2.26" height="37.96"/><line class="cls-32" x1="188.68" y1="45.16" x2="188.68" y2="155.69"/><rect class="cls-32" x="187.55" y="65.35" width="2.26" height="38.94"/><line class="cls-32" x1="193.51" y1="45.16" x2="193.51" y2="155.69"/><rect class="cls-32" x="192.38" y="62.67" width="2.26" height="19.77"/><line class="cls-32" x1="198.33" y1="45.16" x2="198.33" y2="155.69"/><rect class="cls-32" x="197.2" y="68.38" width="2.26" height="28.39"/><line class="cls-32" x1="203.15" y1="45.16" x2="203.15" y2="155.69"/><rect class="cls-32" x="202.02" y="81.16" width="2.26" height="29.53"/><line class="cls-32" x1="207.97" y1="45.16" x2="207.97" y2="155.69"/><rect class="cls-32" x="206.84" y="72.56" width="2.26" height="30.05"/><line class="cls-32" x1="212.8" y1="45.16" x2="212.8" y2="155.69"/><rect class="cls-32" x="211.66" y="68.79" width="2.26" height="19.27"/><line class="cls-32" x1="217.62" y1="45.16" x2="217.62" y2="155.69"/><rect class="cls-32" x="216.49" y="72.36" width="2.26" height="40.77"/><line class="cls-32" x1="222.44" y1="45.16" x2="222.44" y2="155.69"/><rect class="cls-32" x="221.31" y="70.98" width="2.26" height="37.74"/><line class="cls-32" x1="227.26" y1="45.16" x2="227.26" y2="155.69"/><rect class="cls-32" x="226.13" y="64.45" width="2.26" height="10.43"/><line class="cls-32" x1="232.09" y1="45.16" x2="232.09" y2="155.69"/><rect class="cls-32" x="230.95" y="69.61" width="2.26" height="19.91"/><line class="cls-32" x1="236.91" y1="45.16" x2="236.91" y2="155.69"/><rect class="cls-32" x="235.78" y="73.36" width="2.26" height="15.61"/><line class="cls-32" x1="241.73" y1="45.16" x2="241.73" y2="155.69"/><rect class="cls-32" x="240.6" y="80.52" width="2.26" height="16.88"/><line class="cls-32" x1="246.55" y1="45.16" x2="246.55" y2="155.69"/><rect class="cls-32" x="245.42" y="79.47" width="2.26" height="20.95"/><line class="cls-32" x1="251.38" y1="45.16" x2="251.38" y2="155.69"/><rect class="cls-32" x="250.24" y="78.02" width="2.26" height="20.3"/><line class="cls-32" x1="256.2" y1="45.16" x2="256.2" y2="155.69"/><rect class="cls-32" x="255.07" y="81.16" width="2.26" height="11.59"/><line class="cls-32" x1="261.02" y1="45.16" x2="261.02" y2="155.69"/><rect class="cls-32" x="259.89" y="83.86" width="2.26" height="22.2"/><line class="cls-32" x1="265.84" y1="45.16" x2="265.84" y2="155.69"/><rect class="cls-32" x="264.71" y="90.18" width="2.26" height="39.75"/><line class="cls-32" x1="270.67" y1="45.16" x2="270.67" y2="155.69"/><rect class="cls-32" x="269.53" y="92.73" width="2.26" height="32.18"/><line class="cls-32" x1="275.49" y1="45.16" x2="275.49" y2="155.69"/><rect class="cls-32" x="274.36" y="91.38" width="2.26" height="11.23"/><line class="cls-32" x1="280.31" y1="45.16" x2="280.31" y2="155.69"/><rect class="cls-32" x="279.18" y="82.57" width="2.26" height="13.23"/><line class="cls-32" x1="285.13" y1="45.16" x2="285.13" y2="155.69"/><rect class="cls-32" x="284" y="84.82" width="2.26" height="35.15"/><line class="cls-32" x1="289.96" y1="45.16" x2="289.96" y2="155.69"/><rect class="cls-32" x="288.82" y="103.38" width="2.26" height="32.88"/><line class="cls-32" x1="294.78" y1="45.16" x2="294.78" y2="155.69"/><line class="cls-32" x1="299.6" y1="45.16" x2="299.6" y2="155.69"/><rect class="cls-32" x="298.47" y="107.14" width="2.26" height="21.89"/><line class="cls-32" x1="304.42" y1="45.16" x2="304.42" y2="155.69"/><rect class="cls-32" x="303.29" y="95.56" width="2.26" height="26.5"/><line class="cls-32" x1="309.25" y1="45.16" x2="309.25" y2="155.69"/><rect class="cls-32" x="308.11" y="66.16" width="2.26" height="37.22"/><line class="cls-32" x1="314.07" y1="45.16" x2="314.07" y2="155.69"/><rect class="cls-32" x="312.94" y="59.44" width="2.26" height="29.75"/><line class="cls-32" x1="318.89" y1="45.16" x2="318.89" y2="155.69"/><rect class="cls-32" x="317.76" y="59.71" width="2.26" height="13.18"/><line class="cls-32" x1="323.71" y1="45.16" x2="323.71" y2="155.69"/><rect class="cls-32" x="322.58" y="66.3" width="2.26" height="16.03"/><line class="cls-32" x1="328.54" y1="45.16" x2="328.54" y2="155.69"/><rect class="cls-32" x="327.4" y="56.54" width="2.26" height="19.24"/><line class="cls-32" x1="333.36" y1="45.16" x2="333.36" y2="155.69"/><rect class="cls-32" x="332.23" y="61.69" width="2.26" height="22.17"/><rect class="cls-32" x="293.65" y="113.13" width="2.26" height="25.86"/><path class="cls-8" d="M341.81,27.07H127.19a8,8,0,0,0-8,8v14.5H349.81V35.07A8,8,0,0,0,341.81,27.07Z"/><rect class="cls-12" x="172.99" y="117.52" width="2.26" height="24.82"/><image width="700" height="114" transform="translate(124.36 30.98) scale(0.13)" xlink:href="../../../../../../Downloads/stockehino-logo.png"/><polygon class="cls-33" points="56.89 141.01 32.31 106.42 7.73 141.01 21.39 141.01 21.39 187.49 43.23 187.49 43.23 141.01 56.89 141.01"/><polygon class="cls-34" points="546.42 166.92 571.07 201.6 595.71 166.92 582.02 166.92 582.02 120.32 560.12 120.32 560.12 166.92 546.42 166.92"/><path class="cls-12" d="M186.6,148.68H145.74a1.86,1.86,0,0,1-1.83-2.51l8-29.42a3.54,3.54,0,0,1,3.19-2.52h40.86a1.87,1.87,0,0,1,1.84,2.52l-8,29.42A3.51,3.51,0,0,1,186.6,148.68Z"/><path class="cls-35" d="M186.19,146.84h-39a1,1,0,0,1-1-1.39l7.58-28a1.93,1.93,0,0,1,1.76-1.38h39a1,1,0,0,1,1,1.38l-7.58,28A2,2,0,0,1,186.19,146.84Z"/><path class="cls-1" d="M186.19,146.84h-39a1,1,0,0,1-1-1.39l7.58-28a1.93,1.93,0,0,1,1.76-1.38h39a1,1,0,0,1,1,1.38l-7.58,28A2,2,0,0,1,186.19,146.84Z"/><path class="cls-36" d="M188,145.45l6.64-24.51-10.34,10.39-.52-3-10.56,12.24-.29-2.81-1.82,1.75L170.67,128l-9.27,7.74-1-3.69L152,138.12l-.79-3.05-2.75,2-2.28,8.42a1,1,0,0,0,1,1.39h39A2,2,0,0,0,188,145.45Z"/><path class="cls-19" d="M190.28,120.47h-8.23a.67.67,0,0,1-.66-.9l.17-.61a1.27,1.27,0,0,1,1.15-.91h8.22a.67.67,0,0,1,.66.91l-.16.61A1.28,1.28,0,0,1,190.28,120.47Z"/><path class="cls-14" d="M178.6,120.47h-8.22a.67.67,0,0,1-.66-.9l.16-.61a1.28,1.28,0,0,1,1.15-.91h8.23a.67.67,0,0,1,.66.91l-.17.61A1.27,1.27,0,0,1,178.6,120.47Z"/><path class="cls-37" d="M197.62,142.74l.89-4.68s1-8-3.52-10.71l-.72,2.77a1.65,1.65,0,0,1-2.13,1.14L188.38,130l-.19.63a1.1,1.1,0,0,0,.69,1.36c.82.29,1.86.77,2,1.38.28,1,.29,2.72,2.4,3.8l-2.11,2.27Z"/><path class="cls-38" d="M189.56,140l2.74-2.25s5.56.7,6.26,6.33L196,149.1Z"/><path class="cls-39" d="M60.42,348.55l-3.66,6.19s1.41,5.63,5.35,8.16A50.58,50.58,0,0,1,67.44,367a10.43,10.43,0,0,0,5.93,2.51c2.52.21,5.55.34,6.08-.19.94-.94-5.91-6.75-5.91-6.75l-3.18-7,.28-6.09Z"/><path class="cls-39" d="M128.53,359.1l-1.65,8.64a4.08,4.08,0,0,0,3.3,4.8,14.8,14.8,0,0,0,3.83.15c5.63-.42,7.6-2.16,12.38-3.05S157.22,365,156.65,363s-14.2-2.53-14.2-2.53l-2.25-3.13Z"/><path class="cls-40" d="M145,210.27l2.12,66.66-5.77,82.4s-8.72,2.54-14.63,0c0,0-3.94-57.93-2-81L111,213.65Z"/><path class="cls-40" d="M115.75,203.19,99.2,275l-26.62,78.2a41.72,41.72,0,0,0-14.14-3.73s11-57,18.78-78.82l3.92-69.12Z"/><path class="cls-39" d="M145,210.27,113.4,213.4l2.35-10.21-34.61-1.64-2.37,41.82c7.5-2.9,18.71-6.65,30.1-10.31l3.23-14,2.59,12.16c12.21-3.87,23.91-7.42,30.66-9.45Z"/><path class="cls-40" d="M86.31,104.38c-8.64-.51-13.47,3.71-17.2,13.13-4,10.14-9,29.8-12.92,40.81C52,169.91,59.9,187.07,85.65,178.63Z"/><path class="cls-39" d="M85.65,178.63l.16-17.77-4.81-9s-10.15,25.46-24.22,19.92C60.25,179.07,69.38,184,85.65,178.63Z"/><path class="cls-37" d="M109.62,80.84l1.63,5.25s2.81,3.12,2.81,6.74a12,12,0,0,1-.62,3.84,2.75,2.75,0,0,1-2.94,1.8l-1.19-.14-1.44,8.25H94.63l3.56-12.31,6.44-12.37Z"/><path class="cls-41" d="M111.37,75.59c-2.06-.87-3.13,1.51-8.81,1.13-6.43-.44-10.32,3.12-8.8,7.18-4.13,5-.07,9.71,1.85,11.49a3.13,3.13,0,0,1,1,2.09l.12,1.86s5.91.37,9.65-3.94a6.6,6.6,0,0,0,1.39-2.77,2.26,2.26,0,0,1-1.62.7,2.57,2.57,0,0,1,0-5.12,2.3,2.3,0,0,1,1.86,1,22.15,22.15,0,0,0-1.63-6.55C113.06,82.53,113.43,76.47,111.37,75.59Z"/><path class="cls-40" d="M189.56,140l-21.38,15.47-22.43-35.56a33.2,33.2,0,0,0-28.08-15.49H86.31a9.13,9.13,0,0,0-9.08,10L84,182.15l-10.68,28.5a94.72,94.72,0,0,0,22.1,8.28l3.77-14.1,1.5,15.16c28.43,4.84,48.33-6.48,48.33-6.48l-4.92-25.88-2-19.41s4.16,6.69,6.89,10.55c7.45,10.55,24.19,8,29.53,1.13s19.27-29.11,19.27-29.11C197.58,142.07,189.56,140,189.56,140Z"/><polygon class="cls-39" points="142.17 168.22 128.11 139.26 147.1 203.19 144.14 187.63 142.17 168.22"/><polyline class="cls-42" points="95.76 131 102.22 177.37 100.26 199.87"/><line class="cls-42" x1="81" y1="151.9" x2="78.28" y2="124.93"/><ellipse class="cls-1" cx="498.48" cy="365.06" rx="73.87" ry="21.75"/><path class="cls-37" d="M465,231.73s7,83.92,7.32,95.45.38,20.15-1.69,23.91c-1.5,2.72-5,8.25-5,8.25s-7.13,4.68-6.94,6,6.1-.1,9.85-.75,10.5-8.72,10.5-8.72v9.65h2.25s0-5,1.31-7.68,1.4-8.07-1.31-10.69c0,0,5.25-33.22,7.5-48.35s-1.6-31.62-1.6-37.81,2.3-28.73,2.3-28.73Z"/><path class="cls-37" d="M500.55,231.73s21.69,83.92,24,95.45,3.91,20.15,2.49,23.91c-1,2.72-3.53,8.25-3.53,8.25s-6.3,4.68-5.89,6,6.08-.1,9.72-.75,9-8.72,9-8.72l1.69,9.65h2.25s-.87-5,0-7.68,0-8.07-3.18-10.69c0,0-.56-33.22-.95-48.35S529,267.18,527.88,261s-2.72-28.73-2.72-28.73Z"/><path class="cls-43" d="M527.88,261c-1.08-6.18-2.72-28.73-2.72-28.73l-24.61-.53S504,245,508.23,261.62c7.27,3.2,15,6.87,22.9,11C529.65,267.62,528.31,263.47,527.88,261Z"/><path class="cls-43" d="M465,231.73s.48,5.71,1.19,14.34c5.3,1.58,12.67,4,21.43,7.21.66-8.91,1.9-21,1.9-21Z"/><path class="cls-13" d="M472.86,120.9l-9-.7a1.36,1.36,0,0,1-1.22-1.23l-1.23-17.45a1,1,0,0,1,1.06-1l9,.7a1.37,1.37,0,0,1,1.22,1.23l1.23,17.45A1,1,0,0,1,472.86,120.9Z"/><path class="cls-41" d="M464.67,102.49a.58.58,0,0,1-.64.63.82.82,0,0,1-.73-.74.57.57,0,0,1,.63-.63A.83.83,0,0,1,464.67,102.49Z"/><polygon class="cls-41" points="468.73 103.11 465.26 102.84 465.22 102.23 468.69 102.51 468.73 103.11"/><line class="cls-44" x1="471.37" y1="102.67" x2="472.64" y2="119.41"/><path class="cls-39" d="M486.51,88.39s-5.34-.77-7.91,3.53c-2.44,4.07-.71,8.25,0,11.14a20.72,20.72,0,0,1-.08,6.47,1.86,1.86,0,0,0,2,2.1l14.07-.91s10.23.45,11.32-3.48-4.82-5.78-4.82-10C501.06,92.64,498.1,83.69,486.51,88.39Z"/><path class="cls-37" d="M455.06,127.07l6.23-9.14.28-6.75s.85-8.3,1.36-8.34.57,7.08.57,7.08,5.06-3.66,5.62-3.33-4.73,5-4.73,5,6-1.4,6.61-.88-5.77,2.34-5.77,2.34,5,0,5.06.47-4,.75-4,.75.75,5.16-1.73,6.14l-1.48,9.19Z"/><path class="cls-13" d="M467.67,175.31S459,196,464.2,236.43h64.21s-2.62-39.75-14.43-60L491.34,156.6l-11.67,5.54Z"/><path class="cls-39" d="M530.81,223.85H504.59l1.51-8.14a4.42,4.42,0,0,1,4.34-3.62H525a4.43,4.43,0,0,1,4.35,3.62Zm-23.81-2h21.41l-1.07-5.78a2.42,2.42,0,0,0-2.38-2H510.44a2.42,2.42,0,0,0-2.37,2Z"/><rect class="cls-40" x="487.26" y="219.87" width="60.89" height="42.89"/><path class="cls-12" d="M535.54,256.39H499.87a9.69,9.69,0,0,1-9.63-8.66l-3-27.86h60.89l-3,27.86A9.69,9.69,0,0,1,535.54,256.39Z"/><path class="cls-37" d="M515.11,202.57l-.33,3.28-2.67,6.92a3.56,3.56,0,0,0,0,2.47l.16.41a2.8,2.8,0,0,0,2.64,1.84H518a2.73,2.73,0,0,0,2.45-1.52l.75-1.54-.8-1.42s2.35-4.75.28-6.86l.85-3.75Z"/><path class="cls-40" d="M520,120.65c-5.62-6.66-20.54-10.15-20.54-10.15l-9.35.48c-13.76,4.57-24.34,18.48-24.34,18.48l-11.53-4.08s-8.72,17.58-9.57,24,4.64,10,12.24,8.88,15.47-13.12,15.47-13.12l2,2.57-8.43,30.66c3,.46,6.25.8,9.54,1a8.34,8.34,0,0,0,8.73-6.51l1.95-8.77,4.81,11.68a6.27,6.27,0,0,0,6,3.88c11.39-.36,19.1-1.3,19.1-1.3l-10-21.09Z"/><path class="cls-13" d="M495.56,109.49c4.85-.77,12.66,9.07,12.66,9.07l-12.87,7,4.29,3.14s-11.67,3.68-13.22,6.77a19.23,19.23,0,0,0-5.42-8.09l4.08-2.81-5.41-6.52S486.6,110.92,495.56,109.49Z"/><polygon class="cls-39" points="507.31 131.01 506.02 157.31 513.31 138.16 507.31 131.01"/><path class="cls-37" d="M487,91.92s.07,5.62,7.59,6.89c0,0,.64-2.43,2.61-2,2.24.52,1.33,4.57-.78,4.36l2,9.91S489.3,125,487.61,130.45c-.91-6.19,3.1-17.23,3.1-17.23l-.64-4.36a5,5,0,0,1-4.21-.42c-2.29-1.27-2.11-4.22-2.5-5.87a45.67,45.67,0,0,0-1.65-4.75S484.31,92.79,487,91.92Z"/><path class="cls-43" d="M490.07,108.86c2-.67,3.63-3.34,4.12-4.57,0,2.85-1.65,6.44-3.69,7.49Z"/><polyline class="cls-45" points="486.42 135.51 480.98 147.93 485.48 163.31"/><line class="cls-45" x1="465.75" y1="129.46" x2="460.75" y2="148.17"/><path class="cls-39" d="M465.29,153.48a50.82,50.82,0,0,0,7.07-8.31c-1.41-1.93-1.06-8,1.54-13.14C468.51,137.75,468.35,148.13,465.29,153.48Z"/><path class="cls-40" d="M507.31,130.45l5.5,34v39.15H523s4-24.65,5-41.15-4.32-36.68-8-41.83C520,120.65,507.55,125.12,507.31,130.45Z"/><path class="cls-13" d="M484.82,149.17a1,1,0,1,1-1-1A1,1,0,0,1,484.82,149.17Z"/><rect class="cls-13" x="495.14" y="166.52" width="12.94" height="1.62"/><polygon class="cls-13" points="478.23 168.13 468.84 168.13 469.16 166.52 478.23 166.52 478.23 168.13"/><path class="cls-40" d="M481.36,365.52s0-5,1.31-7.68,1.4-8.07-1.31-10.69c-3.24-2-8.72,8.58-8.72,8.58A6.85,6.85,0,0,1,469,354c-1.54,2.57-3.26,5.32-3.26,5.32s-7.13,4.68-6.94,6,6.1-.1,9.85-.75,10.5-8.72,10.5-8.72v9.65Z"/><path class="cls-40" d="M540.24,365.52s-.87-5,0-7.68,0-8.07-3.18-10.69c-3.59-2-7.22,8.58-7.22,8.58a8.14,8.14,0,0,1-4-1.71c-1.1,2.57-2.34,5.32-2.34,5.32s-6.3,4.68-5.89,6,6.08-.1,9.72-.75,9-8.72,9-8.72l1.69,9.65Z"/><circle class="cls-2" cx="100.85" cy="17.16" r="16.66" transform="translate(0.96 39.23) rotate(-22.11)"/></g></g></svg>